<svg width="150" height="150" viewBox="0 0 150 150" fill="none" xmlns="http://www.w3.org/2000/svg">
<path fill-rule="evenodd" clip-rule="evenodd" d="M75 150C116.421 150 150 116.421 150 75C150 33.5786 116.421 0 75 0C33.5786 0 0 33.5786 0 75C0 116.421 33.5786 150 75 150ZM76.1674 48.3029L96.5268 75.0886L75.2143 103.124H77.8482C79.7232 103.124 81.4888 102.247 82.6228 100.756L99.3304 78.7761L116.038 100.756C117.172 102.249 118.937 103.124 120.812 103.124H123.446L102.136 75.0886L122.496 48.3029H119.862C117.987 48.3029 116.221 49.1779 115.089 50.6712L99.3326 71.4011L83.5759 50.6712C82.442 49.1779 80.6763 48.3029 78.8013 48.3029H76.1674ZM31.25 79.0685V77.3207H75.8929V70.6243C75.8929 55.7247 62.6228 43.9256 47.2567 46.4011C35.2946 48.3274 26.7857 59.1444 26.7857 71.2582V72.8564V77.3207V77.6377C26.7857 92.2627 37.4487 103.943 51.0446 104.104C62.4085 104.238 72 96.6399 74.9442 86.2493H72.6496C71.2679 86.2493 70.0134 87.0417 69.4107 88.2872C65.5312 96.3118 56.4888 101.372 46.5804 99.0953C37.4464 96.9971 31.25 88.4413 31.25 79.0685ZM71.4286 72.8564H31.25V72.2091C31.25 61.7002 37.5089 53.1087 46.7054 51.0529C59.817 48.1243 71.4286 58.0171 71.4286 70.6243V72.8564Z" fill="#D9D9D9"/>
</svg>
