<svg width="150" height="150" viewBox="0 0 150 150" fill="none" xmlns="http://www.w3.org/2000/svg">
<path fill-rule="evenodd" clip-rule="evenodd" d="M150 75C150 116.421 116.421 150 75 150C33.5786 150 0 116.421 0 75C0 33.5786 33.5786 0 75 0C116.421 0 150 33.5786 150 75ZM124.286 64.2858L111.429 72.8572V87.6051L87.8571 102.857V117.857L124.286 94.2858L124.286 92.1429L124.286 79.2858L124.286 64.2858ZM111.429 42.8572L124.286 34.2857V49.2857L111.429 57.8572V42.8572ZM85.7143 55.4622L62.1429 70.7143V55.7143L98.5714 32.1429L98.5714 47.1429L98.5714 62.1429V75V77.1429L62.1429 100.714V85.7143L85.7143 70.4622V55.4622Z" fill="#D9D9D9"/>
<path d="M25.7143 32.1428L38.5714 40.7143V83.5714L25.7143 75V32.1428Z" fill="#4F4F4F"/>
<path d="M25.7143 47.1428L62.1429 70.7143V55.7143L25.7143 32.1428V47.1428Z" fill="#4F4F4F"/>
<path d="M87.8572 102.354L62.1429 85.7142V100.714L87.8572 117.354V102.354Z" fill="#4F4F4F"/>
</svg>
