<svg width="150" height="150" viewBox="0 0 150 150" fill="none" xmlns="http://www.w3.org/2000/svg">
<path fill-rule="evenodd" clip-rule="evenodd" d="M75 150C116.421 150 150 116.421 150 75C150 33.5786 116.421 0 75 0C33.5786 0 0 33.5786 0 75C0 116.421 33.5786 150 75 150ZM77.5417 33.8627L75.0865 29.2512C74.7875 29.6049 75.5379 98.6033 75.6069 98.7528V99.4542C75.5092 101.007 75.7075 102.51 76.0094 104.014C76.2106 105.265 76.6103 106.521 77.2629 107.622C77.6136 108.223 78.0161 108.875 78.8671 108.875C80.4771 107.72 81.9778 106.42 83.3807 105.017C91.9711 96.1481 96.2317 85.4763 96.0305 73.048C95.9816 68.8909 95.329 64.7797 94.1273 60.772C92.1234 54.2114 89.3175 48.1453 85.1575 42.6829C83.4037 40.3772 81.4517 38.2239 79.3961 36.1683C78.6917 35.4668 78.0938 34.7136 77.5417 33.8627Z" fill="#D9D9D9"/>
<path d="M75.0865 29.0989C74.9859 28.8977 74.8853 29.05 74.7847 29.1478C74.8336 30.154 74.4828 31.051 73.9337 31.9077C73.33 32.7587 72.5307 33.4113 71.7286 34.1128C67.2725 37.971 63.7651 42.6312 60.9562 47.8435C57.2188 54.8583 55.2926 62.3763 54.7464 70.291C54.4963 73.1458 55.6491 83.2195 56.549 86.1261C59.0042 93.8424 63.4143 100.308 69.1268 105.92C70.5298 107.271 72.0305 108.525 73.583 109.729C74.0343 109.729 74.0832 109.327 74.1867 109.028C74.3846 108.388 74.5354 107.735 74.6381 107.073L75.6443 99.5578L75.0865 29.0989Z" fill="#343434"/>
<path d="M77.5418 111.929C77.6424 110.779 78.1944 109.824 78.7952 108.873C78.1915 108.622 77.743 108.125 77.3923 107.57C77.0904 107.07 76.8403 106.469 76.6448 105.917C75.9433 103.813 75.7938 101.605 75.5925 99.4543V98.152C75.3424 98.3532 75.2907 100.055 75.2907 100.308C75.1444 102.581 74.8428 104.841 74.3879 107.073C74.2385 107.976 74.1378 108.875 73.583 109.678C73.583 109.778 73.583 109.879 73.6318 110.028C74.5346 112.685 74.7818 115.39 74.9342 118.147V119.153C74.9342 120.355 74.8853 120.102 75.8829 120.505C76.2854 120.654 76.7339 120.706 77.1364 121.005C77.4383 121.005 77.4871 120.755 77.4871 120.553L77.3376 118.9V114.289C77.2888 113.484 77.4383 112.685 77.5389 111.932L77.5418 111.929Z" fill="#626262"/>
</svg>
