<svg width="150" height="150" viewBox="0 0 150 150" fill="none" xmlns="http://www.w3.org/2000/svg">
<path fill-rule="evenodd" clip-rule="evenodd" d="M75 150C116.421 150 150 116.421 150 75C150 33.5786 116.421 0 75 0C33.5786 0 0 33.5786 0 75C0 116.421 33.5786 150 75 150ZM79.81 27.98L114.348 100.136C115.714 102.988 114.192 106.384 111.158 107.258L57.17 122.808C55.112 123.4 52.91 122.598 51.712 120.82L32.418 92.1741C31.556 90.894 31.532 89.2261 32.358 87.9221L70.66 27.438C72.864 23.9561 78.03 24.262 79.81 27.98ZM61.314 115.468L106.72 102.73C107.918 102.394 108.532 101.066 108.014 99.9341L78.328 38.1721C77.728 36.9221 75.89 37.1421 75.6 38.498L59.502 113.762C59.274 114.832 60.262 115.764 61.314 115.468Z" fill="#D9D9D9"/>
</svg>
