<svg width="150" height="150" viewBox="0 0 150 150" fill="none" xmlns="http://www.w3.org/2000/svg">
<path fill-rule="evenodd" clip-rule="evenodd" d="M75 150C116.421 150 150 116.421 150 75C150 33.5786 116.421 0 75 0C33.5786 0 0 33.5786 0 75C0 116.421 33.5786 150 75 150ZM51 33.4297C53.008 32.2737 55.2747 31.7266 57.7188 31.7266C62.9275 31.7266 68.951 34.3416 75 38.8281C81.0486 34.3416 87.0707 31.7266 92.2812 31.7266C94.7292 31.7266 96.996 32.2698 99 33.4297C105.275 37.0527 107.663 45.8826 106.398 56.875C116.549 61.2754 123 67.7546 123 75C123 82.2437 116.553 88.7246 106.406 93.125C107.672 104.118 105.283 112.947 99.0078 116.57C96.9998 117.726 94.7331 118.273 92.2891 118.273C87.0786 118.273 81.0491 115.658 75 111.172C68.9514 115.658 62.9293 118.273 57.7188 118.273C55.2708 118.273 53.004 117.726 51 116.57C44.7245 112.947 42.3365 104.117 43.6016 93.125C33.4508 88.7246 27 82.2454 27 75C27 67.7546 33.4508 61.2754 43.6016 56.875C42.3358 45.8821 44.7245 37.0527 51 33.4297ZM69.4688 43.4688C64.9798 40.3889 60.8453 38.7266 57.7188 38.7266C56.4507 38.7266 55.4 38.9722 54.5 39.4922C51.456 41.2522 49.8923 46.5596 50.3203 53.6797C50.3281 53.8098 50.3447 53.9443 50.3613 54.0791C50.3755 54.1941 50.3897 54.3093 50.3984 54.4219C53.9214 53.3667 57.7243 52.5237 61.7578 51.9453C64.2446 48.7917 66.8295 45.9595 69.4688 43.4688ZM95.5 39.4922C94.6 38.9722 93.5453 38.7266 92.2812 38.7266C89.1563 38.7266 85.0198 40.3894 80.5312 43.4688C83.1705 45.9592 85.7476 48.7922 88.2344 51.9453C92.2707 52.5237 96.0764 53.3662 99.6016 54.4219C99.6103 54.3093 99.6245 54.1943 99.6387 54.0796C99.6553 53.9448 99.6719 53.8101 99.6797 53.6797C100.108 46.5596 98.544 41.2483 95.5 39.4922ZM78.25 51.0859C77.1611 49.9441 76.0843 48.9011 75 47.9141C73.9167 48.9001 72.8458 49.9453 71.7578 51.0859C71.9893 51.0781 72.2205 51.0698 72.4518 51.0615C73.296 51.0308 74.1406 51 75 51C75.8615 51 76.7082 51.0308 77.5544 51.0615C77.7862 51.0698 78.018 51.0781 78.25 51.0859ZM84.4375 58.5078C81.4565 58.1853 78.3148 58 75 58C71.7991 58 68.6331 58.1936 65.5469 58.5312C63.7344 60.9961 61.9483 63.5996 60.2734 66.5C58.6637 69.2881 57.2399 72.1418 55.9844 75C57.2408 77.8599 58.6628 80.718 60.2734 83.5078C61.9529 86.4165 63.7446 89.0212 65.5625 91.4922C68.5435 91.8147 71.6852 92 75 92C78.2009 92 81.3669 91.8064 84.4531 91.4688C86.2651 89.0039 88.0523 86.4082 89.7266 83.5078C91.3372 80.718 92.7596 77.8599 94.0156 75C92.7598 72.1418 91.3363 69.2881 89.7266 66.5C88.0471 63.5913 86.2554 60.9788 84.4375 58.5078ZM98.5312 61.4219C97.097 60.9609 95.5714 60.5471 93.9844 60.1641C94.2138 60.531 94.449 60.8884 94.6841 61.2458C95.0605 61.8181 95.4367 62.3899 95.7891 63C96.3455 63.9636 96.8447 64.9326 97.3594 65.8984C97.8089 64.3865 98.2063 62.8901 98.5312 61.4219ZM55.3158 61.2437C55.5482 60.8894 55.7807 60.5352 56.0078 60.1719C54.4433 60.5439 52.9215 60.9526 51.4609 61.4141C51.7862 62.8853 52.19 64.3833 52.6406 65.8984C52.752 65.6892 52.8627 65.48 52.9734 65.2708C53.3741 64.5132 53.7751 63.7551 54.2109 63C54.5637 62.3894 54.9396 61.8167 55.3158 61.2437ZM48.3906 74.9922C46.8869 71.2317 45.7178 67.543 44.875 63.9844C44.772 64.0337 44.6638 64.0791 44.5556 64.1245C44.43 64.1775 44.3045 64.2305 44.1875 64.2891C37.8075 67.4771 34 71.4839 34 75C34 78.4255 37.9169 82.6128 44.8828 85.9766C45.7259 82.4258 46.8901 78.7437 48.3906 74.9922ZM116 75C116 71.5745 112.083 67.3872 105.117 64.0234C104.275 67.5713 103.116 71.2517 101.617 75C103.122 78.7627 104.282 82.4551 105.125 86.0156C105.228 85.9663 105.336 85.9209 105.444 85.8755C105.57 85.8225 105.695 85.7695 105.812 85.7109C112.193 82.5229 116 78.5161 116 75ZM67 75C67 70.5801 70.58 67 75 67C79.42 67 83 70.5801 83 75C83 79.4199 79.42 83 75 83C70.58 83 67 79.4199 67 75ZM52.874 84.5403L52.6406 84.1016C52.1907 85.6145 51.7939 87.1089 51.4688 88.5781C52.903 89.0391 54.4286 89.4529 56.0156 89.8359C55.7913 89.4771 55.5623 89.1267 55.3333 88.7769C54.9542 88.197 54.5753 87.6177 54.2188 87C53.7463 86.1819 53.31 85.3608 52.874 84.5403ZM98.5391 88.5859C98.2141 87.1162 97.8094 85.623 97.3594 84.1094L97.0784 84.6382C96.6605 85.4263 96.2426 86.2141 95.7891 87C95.4363 87.6106 95.0604 88.1833 94.6842 88.7563C94.4518 89.1106 94.2193 89.4648 93.9922 89.8281C95.5567 89.4561 97.0785 89.0474 98.5391 88.5859ZM61.7656 98.0547C57.7293 97.4763 53.9236 96.6338 50.3984 95.5781C50.3792 95.825 50.335 96.084 50.3203 96.3281C49.8923 103.448 51.456 108.752 54.5 110.508C55.4 111.028 56.4547 111.281 57.7188 111.281C60.8451 111.281 64.9802 109.618 69.4688 106.539C66.8283 104.048 64.2531 101.209 61.7656 98.0547ZM99.6338 95.8838C99.6213 95.7812 99.6094 95.6787 99.6016 95.5781C96.0786 96.6333 92.2757 97.4763 88.2422 98.0547C85.7542 101.21 83.1718 104.047 80.5312 106.539C85.0198 109.618 89.1549 111.281 92.2812 111.281C93.5493 111.281 94.6 111.028 95.5 110.508C98.544 108.748 100.108 103.448 99.6797 96.3281C99.6711 96.1833 99.6519 96.0334 99.6338 95.8838ZM75 99C73.9025 99 72.8291 98.9502 71.75 98.9141C72.8389 100.056 73.9157 101.099 75 102.086C76.0843 101.099 77.1611 100.056 78.25 98.9141C77.1709 98.9502 76.0975 99 75 99Z" fill="#D9D9D9"/>
</svg>
