<svg width="150" height="150" viewBox="0 0 150 150" fill="none" xmlns="http://www.w3.org/2000/svg">
<path fill-rule="evenodd" clip-rule="evenodd" d="M75 150C116.421 150 150 116.421 150 75C150 33.5786 116.421 0 75 0C33.5786 0 0 33.5786 0 75C0 116.421 33.5786 150 75 150ZM52.6 67.7781C52.6 51.4678 61.9312 38.2 73.4 38.2C84.1392 38.2 93.0027 49.8328 94.0875 64.7031C91.8667 63.636 89.6002 62.7527 87.325 62.1001C85.7026 52.1799 79.9904 44.6001 73.4 44.6001C65.5952 44.6001 59 55.2134 59 67.7781C59 74.3784 60.8297 80.4197 63.6906 84.6812C63.991 84.6294 64.2952 84.6023 64.6 84.6001C66.0852 84.6001 67.5096 85.1899 68.5598 86.2402C69.61 87.2905 70.2 88.7148 70.2 90.2C70.2 91.6853 69.61 93.1096 68.5598 94.1599C67.5096 95.21 66.0852 95.8 64.6 95.8C63.778 95.7996 62.9661 95.6184 62.222 95.269C61.4779 94.9194 60.8198 94.4106 60.2946 93.7783C59.7693 93.146 59.3897 92.4058 59.1827 91.6101C58.9757 90.8145 58.9464 89.9832 59.0969 89.175C55.1039 83.7915 52.6 76.2041 52.6 67.7781ZM67.0402 63.8401C68.0904 62.79 69.5148 62.2 71 62.2C71.7595 62.2014 72.5107 62.3572 73.208 62.6582C73.9053 62.959 74.5341 63.3984 75.0563 63.95C81.6969 63.406 89.252 65.291 96.0719 69.3813C110.405 77.9731 117.141 92.7878 111.406 103.106C109.257 106.972 105.577 109.696 100.766 110.984C98.7336 111.528 96.556 111.794 94.3 111.794C89.0968 111.794 83.4655 110.368 78.1406 107.678C80.1934 106.305 82.074 104.812 83.7844 103.222C89.1748 105.39 94.647 105.997 99.1094 104.803C102.209 103.974 104.526 102.311 105.812 99.9968C109.726 92.9568 103.757 81.4495 92.7812 74.8687C87.2338 71.5442 81.2246 69.9399 76.025 70.2656C75.5641 71.2056 74.8489 71.9973 73.9608 72.5515C73.0726 73.1055 72.0468 73.3994 71 73.3999C69.5148 73.3999 68.0904 72.8101 67.0402 71.7598C65.99 70.7097 65.4 69.2852 65.4 67.8C65.4 66.3147 65.99 64.8904 67.0402 63.8401ZM38.5969 103.106C33.4673 93.8792 38.3267 81.0723 49.6562 72.3188C49.9186 74.8389 50.3893 77.2646 51.0469 79.5688C44.1941 86.0776 41.0963 94.429 44.1906 99.9968C45.4771 102.311 47.793 103.974 50.8906 104.803C56.7594 106.376 64.367 104.853 71.2406 100.731C76.9415 97.3125 81.2522 92.5659 83.5625 87.8062C83.2114 87.0747 83 86.2644 83 85.3999C83 82.312 85.512 79.8 88.6 79.8C91.688 79.8 94.2 82.312 94.2 85.3999C94.2 88.2817 92.0049 90.6355 89.2031 90.9407C86.3532 96.6699 81.3278 102.147 74.5312 106.222C68.4561 109.864 61.7831 111.794 55.7031 111.794C53.4439 111.794 51.2711 111.528 49.2375 110.984C44.4263 109.696 40.7457 106.972 38.5969 103.106Z" fill="#D9D9D9"/>
</svg>
