<svg width="150" height="150" viewBox="0 0 150 150" fill="none" xmlns="http://www.w3.org/2000/svg">
<path fill-rule="evenodd" clip-rule="evenodd" d="M75 150C116.421 150 150 116.421 150 75C150 33.5786 116.421 0 75 0C33.5786 0 0 33.5786 0 75C0 116.421 33.5786 150 75 150ZM51 65.4021C54.2 52.606 62.2 46.208 75 46.208C86.896 46.208 92.344 51.7339 97.05 56.51L97.0573 56.5173C99.9444 59.4463 102.553 62.0928 106.2 63.0039C112.6 64.6021 118.2 62.2019 123 55.804C119.8 68.6021 111.8 75 99 75C87.1031 75 81.657 69.4729 76.9533 64.6995L76.952 64.698L76.9447 64.6907C74.0576 61.7617 71.449 59.1152 67.8 58.2041C61.4 56.606 55.8 59.0039 51 65.4021ZM27 94.196C30.2 81.3979 38.2 75 51 75C62.898 75 68.344 80.5281 73.048 85.304L73.0608 85.3171C75.9457 88.2417 78.5533 90.8853 82.2 91.7959C88.6 93.396 94.2 90.9961 99 84.5979C95.8 97.396 87.8 103.794 75 103.794C63.104 103.794 57.656 98.2661 52.95 93.49L52.9442 93.4841C50.0565 90.5566 47.4475 87.9114 43.8 86.998C37.4 85.3979 31.8 87.7981 27 94.196Z" fill="#D9D9D9"/>
</svg>
