<svg width="150" height="150" viewBox="0 0 150 150" fill="none" xmlns="http://www.w3.org/2000/svg">
<path fill-rule="evenodd" clip-rule="evenodd" d="M75 150C116.421 150 150 116.421 150 75C150 33.5786 116.421 0 75 0C33.5786 0 0 33.5786 0 75C0 116.421 33.5786 150 75 150ZM37.2 39C37.2 38.0063 38.0046 37.2 39 37.2H111C111.995 37.2 112.8 38.0063 112.8 39V111C112.8 111.994 111.995 112.8 111 112.8H39C38.0046 112.8 37.2 111.994 37.2 111V39ZM73.2 77.6011H82.2V71.3999H57V77.6011H66V105.6H73.2V77.6011ZM84.2178 96.5171V104.002C84.2178 104.002 105.6 110.919 105.598 95.3237C105.598 89.385 100.773 87.1023 96.7839 85.2148C93.9717 83.8843 91.5743 82.75 91.5743 80.6699C91.5743 78.7207 92.9586 76.8972 96.7944 76.8972C100.63 76.8972 104.027 79.1616 104.027 79.1616L104.279 72.4944C104.279 72.4944 84.0288 66.9612 84.0288 80.9851C84.0288 87.1531 89.001 89.6318 92.9973 91.624C95.6823 92.9624 97.9266 94.0813 97.9266 95.9519L97.927 95.9995C97.9335 96.583 97.9666 99.5989 93.2106 99.5989C88.3055 99.5989 84.2178 96.5171 84.2178 96.5171Z" fill="#D9D9D9"/>
</svg>
