<svg width="101" height="101" viewBox="0 0 101 101" fill="none" xmlns="http://www.w3.org/2000/svg">
<path fill-rule="evenodd" clip-rule="evenodd" d="M50.2056 7.46667C73.8103 7.46667 92.9445 26.6008 92.9445 50.2056C92.9445 73.8103 73.8103 92.9445 50.2056 92.9445C26.6008 92.9445 7.46667 73.8103 7.46667 50.2056C7.46667 26.6008 26.6008 7.46667 50.2056 7.46667ZM100.411 50.2056C100.411 22.4771 77.9341 0 50.2056 0C22.4771 0 0 22.4771 0 50.2056C0 77.9341 22.4771 100.411 50.2056 100.411C77.9341 100.411 100.411 77.9341 100.411 50.2056ZM72.562 49.6396C72.8689 49.9454 72.8678 50.4392 72.562 50.745L52.3742 70.8778C51.6449 71.6072 50.5503 70.5126 51.2797 69.7833L69.5518 51.5219C69.8565 51.2172 69.7431 50.9794 69.3098 50.9794H27.7558C27.3172 50.9794 26.9703 50.6326 26.9703 50.2058C26.9703 49.7908 27.3215 49.431 27.7558 49.431H69.3098C69.7474 49.431 69.8511 49.1879 69.5518 48.8886L51.2797 30.6283C50.5503 29.9 51.6449 28.8033 52.3742 29.5337L72.562 49.6396Z" fill="#D9D9D9"/>
</svg>
